<svg id="icons" enable-background="new 0 0 64 64" height="512" viewBox="0 0 64 64" width="512" xmlns="http://www.w3.org/2000/svg"><path d="m18 4h-6c-.553 0-1 .447-1 1v3c0 .553.447 1 1 1s1-.447 1-1h4c.001.553.447 1 1 1s1-.447 1-1v-3c0-.553-.447-1-1-1z" fill="#ccd1d9"/><path d="m52 4h-6c-.553 0-1 .447-1 1v3c0 .553.447 1 1 1s1-.447 1-1h4c.001.553.447 1 1 1s1-.447 1-1v-3c0-.553-.447-1-1-1z" fill="#ccd1d9"/><path d="m55 7h-3-6-28-6-3c-1.11 0-2 .9-2 2v31h50v-31c0-1.1-.9-2-2-2z" fill="#545c66"/><path d="m7 40h50l6 12h-8-8-9-21-8-8z" fill="#656d78"/><g fill="#ccd1d9"><path d="m20.01 32c1.11 0 2 .889 2 2 0 1.1-.89 2-2 2-1.1 0-2-.9-2-2 0-1.111.9-2 2-2z"/><path d="m20.01 18c1.11 0 2 .9 2 2 0 1.109-.89 2-2 2-1.1 0-2-.891-2-2 0-1.1.9-2 2-2z"/><path d="m13.02 25c1.101 0 2 .9 2 2s-.899 2-2 2c-1.109 0-2-.9-2-2s.89-2 2-2z"/><path d="m13.02 18c1.101 0 2 .9 2 2 0 1.109-.899 2-2 2-1.109 0-2-.891-2-2 0-1.1.89-2 2-2z"/><path d="m20.01 11c1.11 0 2 .9 2 2 0 1.109-.89 2-2 2-1.1 0-2-.891-2-2 0-1.1.9-2 2-2z"/><path d="m30.02 17.66v8.34h-3.01v-8.34c.45.219.96.34 1.5.34s1.06-.121 1.51-.34z"/></g><path d="m30.02 24.998c.55 0 1 .451 1 1v9.002c0 .549-.45 1-1 1h-3.01c-.55 0-1-.451-1-1v-9.002c0-.549.45-1 1-1z" fill="#5d9cec"/><path d="m28.51 11c1.94 0 3.5 1.57 3.5 3.5 0 1.389-.81 2.6-1.99 3.16-.45.219-.97.34-1.51.34s-1.05-.121-1.5-.34c-1.18-.561-2-1.771-2-3.16 0-1.93 1.57-3.5 3.5-3.5z" fill="#e6e9ed"/><path d="m13.02 11c1.101 0 2 .9 2 2 0 1.109-.899 2-2 2-1.109 0-2-.891-2-2 0-1.1.89-2 2-2z" fill="#ccd1d9"/><path d="m13.02 32c1.101 0 2 .889 2 2 0 1.1-.899 2-2 2-1.109 0-2-.9-2-2 0-1.111.89-2 2-2z" fill="#ccd1d9"/><path d="m20.01 25c1.11 0 2 .9 2 2s-.89 2-2 2c-1.1 0-2-.9-2-2s.9-2 2-2z" fill="#ccd1d9"/><path d="m42.01 12.5v17.18c-.45-.221-.96-.34-1.5-.34s-1.05.119-1.5.34v-17.18c0-.83.67-1.5 1.5-1.5s1.5.67 1.5 1.5z" fill="#ccd1d9"/><path d="m51.02 17.33v17.17c0 .83-.67 1.5-1.5 1.5-.829 0-1.5-.67-1.5-1.5v-17.17-.01c.45.219.961.34 1.5.34.54 0 1.051-.121 1.5-.34z" fill="#ccd1d9"/><path d="m14.01 45h13.5c.83 0 1.5.67 1.5 1.5s-.67 1.5-1.5 1.5h-15z" fill="#965353"/><path d="m15.01 43-1 2-1.5 3-.5 1h-5l3-6z" fill="#e6e9ed"/><path d="m7 41c-.553 0-1-.447-1-1v-31c0-.553.447-1 1-1s1 .447 1 1v31c0 .553-.447 1-1 1z" fill="#aab2bd"/><path d="m57 41c-.553 0-1-.447-1-1v-31c0-.553.447-1 1-1s1 .447 1 1v31c0 .553-.447 1-1 1z" fill="#aab2bd"/><path d="m54.999 8h-45.999c-.553 0-1-.447-1-1s.447-1 1-1h45.999c.553 0 1 .447 1 1s-.447 1-1 1z" fill="#aab2bd"/><path d="m7 10c-.553 0-1-.447-1-1 0-1.654 1.346-3 3-3 .553 0 1 .447 1 1s-.447 1-1 1c-.552 0-1 .447-1 1s-.447 1-1 1z" fill="#aab2bd"/><path d="m57 10c-.553 0-1-.447-1-1s-.449-1.002-1.001-1.002c-.553 0-1-.447-1-1s.447-1 1-1c1.654 0 3.001 1.348 3.001 3.002 0 .553-.447 1-1 1z" fill="#aab2bd"/><path d="m46.02 46.498h-8.002c-.553 0-1-.447-1-1s.447-1 1-1h8.002c.553 0 1 .447 1 1s-.448 1-1 1z" fill="#ccd1d9"/><path d="m38.991 45.688c.012-.063.009-.125.01-.189-.001-.064.002-.125-.01-.189-.012-.059-.037-.113-.06-.17-.025-.066-.05-.129-.09-.188-.011-.018-.013-.037-.024-.053-.029-.039-.072-.061-.106-.096-.033-.033-.055-.074-.094-.104l-2-1.5c-.038-.029-.084-.037-.125-.061-.065-.035-.127-.074-.199-.094-.061-.018-.12-.018-.182-.023-.066-.008-.13-.018-.196-.01-.069.006-.132.031-.198.053-.049.016-.1.016-.146.039l-2.999 1.502c-.037.018-.06.051-.093.072-.058.037-.109.074-.158.123-.05.049-.088.104-.125.16-.021.033-.054.055-.071.092-.011.021-.009.045-.019.066-.026.064-.04.129-.053.197-.012.063-.024.121-.024.184 0 .061.013.121.024.182.013.068.026.135.053.197.01.023.008.047.019.068.028.057.068.104.105.152.016.02.026.041.043.061.079.09.172.16.274.215.009.004.015.014.024.02l2.999 1.498h.003c.114.057.239.076.365.086.026.002.052.02.078.02h.001.001c.004 0 .008-.002.012-.002.095-.002.188-.018.278-.045.028-.008.054-.023.081-.035.067-.027.132-.059.192-.1.011-.008.024-.012.035-.02l2-1.498c.049-.037.077-.088.117-.133.025-.025.061-.037.083-.068.012-.016.014-.035.024-.051.04-.061.064-.123.09-.188.024-.057.049-.11.061-.17z" fill="#e6e9ed"/><path d="m28.546 15.498c-.553 0-1.005-.447-1.005-1s.442-1 .994-1h.011c.552 0 1 .447 1 1s-.448 1-1 1z" fill="#ccd1d9"/><path d="m.999 53c-.15 0-.303-.035-.446-.105-.494-.248-.694-.848-.447-1.342l6-12c.248-.494.849-.693 1.342-.447.494.246.694.848.447 1.342l-6 12c-.176.349-.529.552-.896.552z" fill="#ccd1d9"/><path d="m63.001 53c-.367 0-.72-.203-.896-.553l-6-12c-.247-.494-.047-1.096.447-1.342s1.095-.047 1.342.447l6 12c.247.494.047 1.094-.447 1.342-.143.071-.296.106-.446.106z" fill="#ccd1d9"/><path d="m63 51h-62c-.553 0-1 .447-1 1v5c0 .055.022.102.031.154.082 1.57 1.365 2.824 2.951 2.842.006 0 .011.004.017.004h58 .001c1.654 0 3-1.346 3-3v-5c0-.553-.447-1-1-1z" fill="#e6e9ed"/><path d="m46 51v1.998c0 .553.447 1 1 1h8c.553 0 1-.447 1-1v-1.998z" fill="#fff"/><path d="m8 51v1.998c0 .553.447 1 1 1h8c.553 0 1-.447 1-1v-1.998z" fill="#fff"/><path d="m26 57c-.553 0-1-.447-1-1v-1c0-.553.447-1 1-1s1 .447 1 1v1c0 .553-.447 1-1 1z" fill="#656d78"/><path d="m38 57h-12c-.553 0-1-.447-1-1s.447-1 1-1h12c.553 0 1 .447 1 1s-.447 1-1 1z" fill="#656d78"/><path d="m38 57c-.553 0-1-.447-1-1v-1c0-.553.447-1 1-1s1 .447 1 1v1c0 .553-.447 1-1 1z" fill="#656d78"/><path d="m53.516 42.998h-8.497c-.553 0-1 .447-1 1v.002 2.998c0 .553.447 1 1 1h8.497c1.379 0 2.5-1.121 2.5-2.5s-1.121-2.5-2.5-2.5z" fill="#5d9cec"/><path d="m51.03 11h-.01v1.479.182l-.002-.004c0 .553-.447 1-1 1h-.998c-.553 0-1-.447-1-1v-.094-1.563c-1.18.559-2 1.77-2 3.16 0 1.398.82 2.6 2 3.16.45.219.961.34 1.5.34.54 0 1.051-.121 1.5-.34 1.181-.561 2-1.762 2-3.16 0-1.39-.82-2.59-1.99-3.16z" fill="#e6e9ed"/><path d="m38.999 36h.011v-1.48-.18l.002.004c0-.553.447-1 1-1h.998c.553 0 1 .447 1 1v.092 1.564c1.18-.561 2-1.77 2-3.16 0-1.4-.82-2.6-2-3.16-.45-.221-.961-.34-1.5-.34-.54 0-1.051.119-1.5.34-1.181.561-2 1.76-2 3.16 0 1.39.819 2.59 1.989 3.16z" fill="#e6e9ed"/></svg>